# xmcd
#
# Track frame offsets: 
#        150
#        15005
#        26552
#        45292
#        56927
#        71997
#        84832
#        99672
#        115340
#        127202
#
# Disc length: 1901 seconds
#
# Revision: 0
# Processed by: cddbd v1.5PL3 Copyright (c) Steve Scherf et al.
# Submitted via: ExactAudioCopy v0.90b4
#
DISCID=7f076b0a
DTITLE=Rebecca Lynn Howard - Rockin' The Country
DYEAR=1900
DGENRE=Country
TTITLE0=Country Music Rockin' The Country
TTITLE1=Bread And Butter
TTITLE2=Am I Missing Something Here
TTITLE3=Wrong Mr. Right Again
TTITLE4=Love Worth Dying For
TTITLE5=Gone
TTITLE6=Daddy Needs Me More Than You
TTITLE7=I'll Get Even With You
TTITLE8=When The Smoke Clears
TTITLE9=Bad News
EXTD=
EXTT0=
EXTT1=
EXTT2=
EXTT3=
EXTT4=
EXTT5=
EXTT6=
EXTT7=
EXTT8=
EXTT9=
PLAYORDER=
